<mxfile host="app.diagrams.net" agent="Mozilla/5.0 (X11; Linux x86_64; rv:135.0) Gecko/20100101 Firefox/135.0" version="26.0.14">
  <diagram name="Page-1" id="c7488fd3-1785-93aa-aadb-54a6760d102a">
    <mxGraphModel dx="3890" dy="1302" grid="1" gridSize="10" guides="1" tooltips="1" connect="1" arrows="1" fold="1" page="1" pageScale="1" pageWidth="1100" pageHeight="850" background="none" math="0" shadow="0">
      <root>
        <mxCell id="0" />
        <mxCell id="1" parent="0" />
        <mxCell id="2b4e8129b02d487f-1" value="Communication Flow" style="swimlane;html=1;childLayout=stackLayout;horizontal=1;startSize=20;horizontalStack=0;rounded=0;shadow=0;labelBackgroundColor=none;strokeWidth=1;fontFamily=Verdana;fontSize=8;align=center;" parent="1" vertex="1">
          <mxGeometry x="-190" y="10" width="2190" height="1290" as="geometry" />
        </mxCell>
        <mxCell id="2b4e8129b02d487f-2" value="Display" style="swimlane;html=1;startSize=20;horizontal=0;" parent="2b4e8129b02d487f-1" vertex="1">
          <mxGeometry y="20" width="2190" height="280" as="geometry" />
        </mxCell>
        <mxCell id="snoJyz_RMj4-58Zv0lQL-7" value="" style="edgeStyle=orthogonalEdgeStyle;rounded=0;orthogonalLoop=1;jettySize=auto;html=1;" parent="2b4e8129b02d487f-2" source="snoJyz_RMj4-58Zv0lQL-3" target="snoJyz_RMj4-58Zv0lQL-6" edge="1">
          <mxGeometry relative="1" as="geometry" />
        </mxCell>
        <mxCell id="snoJyz_RMj4-58Zv0lQL-3" value="Touch Input" style="rounded=1;whiteSpace=wrap;html=1;" parent="2b4e8129b02d487f-2" vertex="1">
          <mxGeometry x="30" y="10" width="80" height="40" as="geometry" />
        </mxCell>
        <mxCell id="snoJyz_RMj4-58Zv0lQL-10" value="" style="edgeStyle=orthogonalEdgeStyle;rounded=0;orthogonalLoop=1;jettySize=auto;html=1;" parent="2b4e8129b02d487f-2" source="snoJyz_RMj4-58Zv0lQL-6" target="snoJyz_RMj4-58Zv0lQL-9" edge="1">
          <mxGeometry relative="1" as="geometry" />
        </mxCell>
        <mxCell id="snoJyz_RMj4-58Zv0lQL-6" value="Wake-Up Screen" style="rounded=1;whiteSpace=wrap;html=1;" parent="2b4e8129b02d487f-2" vertex="1">
          <mxGeometry x="210" y="10" width="80" height="40" as="geometry" />
        </mxCell>
        <mxCell id="snoJyz_RMj4-58Zv0lQL-9" value="Start Button Pressed" style="rounded=1;whiteSpace=wrap;html=1;" parent="2b4e8129b02d487f-2" vertex="1">
          <mxGeometry x="210" y="110" width="80" height="40" as="geometry" />
        </mxCell>
        <mxCell id="wfJeZkwtzijaD64bfVtk-56" value="&lt;div&gt;Identified FoodItem.&amp;nbsp;&lt;/div&gt;&lt;div&gt;Everything set, quantity = 1&lt;/div&gt;" style="shape=parallelogram;html=1;strokeWidth=2;perimeter=parallelogramPerimeter;whiteSpace=wrap;rounded=1;arcSize=12;size=0.23;" vertex="1" parent="2b4e8129b02d487f-2">
          <mxGeometry x="1920" y="200" width="230" height="60" as="geometry" />
        </mxCell>
        <mxCell id="wfJeZkwtzijaD64bfVtk-57" value="Confirmation" style="rounded=1;whiteSpace=wrap;html=1;" vertex="1" parent="2b4e8129b02d487f-2">
          <mxGeometry x="1720" y="160" width="120" height="60" as="geometry" />
        </mxCell>
        <mxCell id="snoJyz_RMj4-58Zv0lQL-8" style="edgeStyle=orthogonalEdgeStyle;rounded=0;orthogonalLoop=1;jettySize=auto;html=1;exitX=1;exitY=0.5;exitDx=0;exitDy=0;entryX=0;entryY=0.75;entryDx=0;entryDy=0;" parent="2b4e8129b02d487f-1" source="snoJyz_RMj4-58Zv0lQL-5" target="snoJyz_RMj4-58Zv0lQL-6" edge="1">
          <mxGeometry relative="1" as="geometry">
            <Array as="points">
              <mxPoint x="120" y="330" />
              <mxPoint x="120" y="60" />
            </Array>
          </mxGeometry>
        </mxCell>
        <mxCell id="snoJyz_RMj4-58Zv0lQL-14" value="" style="edgeStyle=orthogonalEdgeStyle;rounded=0;orthogonalLoop=1;jettySize=auto;html=1;" parent="2b4e8129b02d487f-1" source="snoJyz_RMj4-58Zv0lQL-9" target="snoJyz_RMj4-58Zv0lQL-13" edge="1">
          <mxGeometry relative="1" as="geometry" />
        </mxCell>
        <mxCell id="snoJyz_RMj4-58Zv0lQL-15" style="edgeStyle=orthogonalEdgeStyle;rounded=0;orthogonalLoop=1;jettySize=auto;html=1;exitX=1;exitY=0.5;exitDx=0;exitDy=0;exitPerimeter=0;entryX=1;entryY=0.5;entryDx=0;entryDy=0;" parent="2b4e8129b02d487f-1" source="snoJyz_RMj4-58Zv0lQL-13" target="snoJyz_RMj4-58Zv0lQL-9" edge="1">
          <mxGeometry relative="1" as="geometry">
            <Array as="points">
              <mxPoint x="270" y="330" />
              <mxPoint x="270" y="200" />
              <mxPoint x="330" y="200" />
              <mxPoint x="330" y="150" />
            </Array>
          </mxGeometry>
        </mxCell>
        <mxCell id="snoJyz_RMj4-58Zv0lQL-16" value="1 = Process Begin&lt;div&gt;0 = Error (no weight)&lt;/div&gt;" style="edgeLabel;html=1;align=center;verticalAlign=middle;resizable=0;points=[];" parent="snoJyz_RMj4-58Zv0lQL-15" vertex="1" connectable="0">
          <mxGeometry x="0.3164" y="1" relative="1" as="geometry">
            <mxPoint x="11" y="22" as="offset" />
          </mxGeometry>
        </mxCell>
        <mxCell id="2b4e8129b02d487f-3" value="Hardware" style="swimlane;html=1;startSize=20;horizontal=0;" parent="2b4e8129b02d487f-1" vertex="1">
          <mxGeometry y="300" width="2190" height="450" as="geometry" />
        </mxCell>
        <mxCell id="snoJyz_RMj4-58Zv0lQL-30" value="for i &amp;lt; 8 &amp;amp;&amp;amp; while stopSignal == 0&lt;div style=&quot;forced-color-adjust: none;&quot;&gt;&lt;br&gt;&lt;/div&gt;&lt;div style=&quot;forced-color-adjust: none;&quot;&gt;&lt;br&gt;&lt;/div&gt;&lt;div style=&quot;forced-color-adjust: none;&quot;&gt;&lt;br&gt;&lt;/div&gt;&lt;div style=&quot;forced-color-adjust: none;&quot;&gt;&lt;br&gt;&lt;/div&gt;&lt;div style=&quot;forced-color-adjust: none;&quot;&gt;&lt;br&gt;&lt;/div&gt;&lt;div style=&quot;forced-color-adjust: none;&quot;&gt;&lt;br&gt;&lt;/div&gt;&lt;div style=&quot;forced-color-adjust: none;&quot;&gt;&lt;br&gt;&lt;/div&gt;&lt;div style=&quot;forced-color-adjust: none;&quot;&gt;&lt;br&gt;&lt;/div&gt;&lt;div style=&quot;forced-color-adjust: none;&quot;&gt;&lt;br&gt;&lt;/div&gt;&lt;div style=&quot;forced-color-adjust: none;&quot;&gt;&lt;br&gt;&lt;/div&gt;&lt;div style=&quot;forced-color-adjust: none;&quot;&gt;&lt;br&gt;&lt;/div&gt;&lt;div style=&quot;forced-color-adjust: none;&quot;&gt;&lt;br&gt;&lt;/div&gt;&lt;div style=&quot;forced-color-adjust: none;&quot;&gt;&lt;br&gt;&lt;/div&gt;&lt;div style=&quot;forced-color-adjust: none;&quot;&gt;&lt;br&gt;&lt;/div&gt;&lt;div style=&quot;forced-color-adjust: none;&quot;&gt;&lt;br style=&quot;forced-color-adjust: none;&quot;&gt;&lt;/div&gt;&lt;div style=&quot;forced-color-adjust: none;&quot;&gt;&lt;br style=&quot;forced-color-adjust: none;&quot;&gt;&lt;/div&gt;&lt;div style=&quot;forced-color-adjust: none;&quot;&gt;&lt;br style=&quot;forced-color-adjust: none;&quot;&gt;&lt;/div&gt;&lt;div style=&quot;forced-color-adjust: none;&quot;&gt;&lt;br style=&quot;forced-color-adjust: none;&quot;&gt;&lt;/div&gt;&lt;div style=&quot;forced-color-adjust: none;&quot;&gt;&lt;br style=&quot;forced-color-adjust: none;&quot;&gt;&lt;/div&gt;&lt;div style=&quot;forced-color-adjust: none;&quot;&gt;&lt;br&gt;&lt;/div&gt;" style="shape=loopLimit;whiteSpace=wrap;html=1;" parent="2b4e8129b02d487f-3" vertex="1">
          <mxGeometry x="270" y="40" width="770" height="320" as="geometry" />
        </mxCell>
        <mxCell id="snoJyz_RMj4-58Zv0lQL-5" value="Weight Input&lt;div&gt;(Possibly)&lt;/div&gt;" style="rounded=1;whiteSpace=wrap;html=1;" parent="2b4e8129b02d487f-3" vertex="1">
          <mxGeometry x="30" y="10" width="80" height="40" as="geometry" />
        </mxCell>
        <mxCell id="snoJyz_RMj4-58Zv0lQL-31" style="edgeStyle=orthogonalEdgeStyle;rounded=0;orthogonalLoop=1;jettySize=auto;html=1;exitX=0.5;exitY=1;exitDx=0;exitDy=0;exitPerimeter=0;entryX=0;entryY=0.5;entryDx=0;entryDy=0;" parent="2b4e8129b02d487f-3" source="snoJyz_RMj4-58Zv0lQL-13" target="snoJyz_RMj4-58Zv0lQL-30" edge="1">
          <mxGeometry relative="1" as="geometry" />
        </mxCell>
        <mxCell id="snoJyz_RMj4-58Zv0lQL-32" value="1" style="edgeLabel;html=1;align=center;verticalAlign=middle;resizable=0;points=[];" parent="snoJyz_RMj4-58Zv0lQL-31" vertex="1" connectable="0">
          <mxGeometry x="-0.3148" relative="1" as="geometry">
            <mxPoint x="19" y="-10" as="offset" />
          </mxGeometry>
        </mxCell>
        <mxCell id="snoJyz_RMj4-58Zv0lQL-13" value="getWeight()" style="strokeWidth=2;html=1;shape=mxgraph.flowchart.decision;whiteSpace=wrap;" parent="2b4e8129b02d487f-3" vertex="1">
          <mxGeometry x="130" y="10" width="100" height="40" as="geometry" />
        </mxCell>
        <mxCell id="snoJyz_RMj4-58Zv0lQL-24" value="" style="edgeStyle=orthogonalEdgeStyle;rounded=0;orthogonalLoop=1;jettySize=auto;html=1;" parent="2b4e8129b02d487f-3" source="snoJyz_RMj4-58Zv0lQL-21" target="snoJyz_RMj4-58Zv0lQL-22" edge="1">
          <mxGeometry relative="1" as="geometry" />
        </mxCell>
        <mxCell id="snoJyz_RMj4-58Zv0lQL-21" value="takePhotos()" style="rounded=1;whiteSpace=wrap;html=1;" parent="2b4e8129b02d487f-3" vertex="1">
          <mxGeometry x="290" y="90" width="80" height="40" as="geometry" />
        </mxCell>
        <mxCell id="snoJyz_RMj4-58Zv0lQL-25" value="" style="edgeStyle=orthogonalEdgeStyle;rounded=0;orthogonalLoop=1;jettySize=auto;html=1;" parent="2b4e8129b02d487f-3" source="snoJyz_RMj4-58Zv0lQL-22" target="snoJyz_RMj4-58Zv0lQL-23" edge="1">
          <mxGeometry relative="1" as="geometry" />
        </mxCell>
        <mxCell id="snoJyz_RMj4-58Zv0lQL-22" value="sendDataToVision()" style="rounded=1;whiteSpace=wrap;html=1;" parent="2b4e8129b02d487f-3" vertex="1">
          <mxGeometry x="390" y="90" width="120" height="40" as="geometry" />
        </mxCell>
        <mxCell id="snoJyz_RMj4-58Zv0lQL-34" value="" style="edgeStyle=orthogonalEdgeStyle;rounded=0;orthogonalLoop=1;jettySize=auto;html=1;" parent="2b4e8129b02d487f-3" source="snoJyz_RMj4-58Zv0lQL-23" target="snoJyz_RMj4-58Zv0lQL-28" edge="1">
          <mxGeometry relative="1" as="geometry" />
        </mxCell>
        <mxCell id="snoJyz_RMj4-58Zv0lQL-23" value="rotatePlatform()" style="rounded=1;whiteSpace=wrap;html=1;" parent="2b4e8129b02d487f-3" vertex="1">
          <mxGeometry x="530" y="90" width="100" height="40" as="geometry" />
        </mxCell>
        <mxCell id="snoJyz_RMj4-58Zv0lQL-35" value="0" style="edgeStyle=orthogonalEdgeStyle;rounded=0;orthogonalLoop=1;jettySize=auto;html=1;exitX=0.5;exitY=0;exitDx=0;exitDy=0;exitPerimeter=0;entryX=0.5;entryY=0;entryDx=0;entryDy=0;" parent="2b4e8129b02d487f-3" source="snoJyz_RMj4-58Zv0lQL-28" target="snoJyz_RMj4-58Zv0lQL-21" edge="1">
          <mxGeometry x="0.0244" y="-10" relative="1" as="geometry">
            <mxPoint as="offset" />
            <Array as="points">
              <mxPoint x="700" y="70" />
              <mxPoint x="330" y="70" />
            </Array>
          </mxGeometry>
        </mxCell>
        <mxCell id="snoJyz_RMj4-58Zv0lQL-37" value="1" style="edgeStyle=orthogonalEdgeStyle;rounded=0;orthogonalLoop=1;jettySize=auto;html=1;entryX=0;entryY=0.5;entryDx=0;entryDy=0;entryPerimeter=0;" parent="2b4e8129b02d487f-3" source="snoJyz_RMj4-58Zv0lQL-28" target="snoJyz_RMj4-58Zv0lQL-36" edge="1">
          <mxGeometry relative="1" as="geometry">
            <mxPoint x="790" y="110" as="targetPoint" />
          </mxGeometry>
        </mxCell>
        <mxCell id="snoJyz_RMj4-58Zv0lQL-28" value="signalCheck()" style="strokeWidth=2;html=1;shape=mxgraph.flowchart.decision;whiteSpace=wrap;" parent="2b4e8129b02d487f-3" vertex="1">
          <mxGeometry x="650" y="90" width="100" height="40" as="geometry" />
        </mxCell>
        <mxCell id="snoJyz_RMj4-58Zv0lQL-36" value="Break/Sleep" style="verticalLabelPosition=bottom;verticalAlign=top;html=1;shape=mxgraph.flowchart.on-page_reference;fillColor=light-dark(#FF3333,var(--ge-dark-color, #121212));" parent="2b4e8129b02d487f-3" vertex="1">
          <mxGeometry x="1440" y="80" width="60" height="60" as="geometry" />
        </mxCell>
        <mxCell id="wfJeZkwtzijaD64bfVtk-24" value="Signal to stop scanning. Item expiration date has been identified" style="shape=parallelogram;html=1;strokeWidth=2;perimeter=parallelogramPerimeter;whiteSpace=wrap;rounded=1;arcSize=12;size=0.23;" vertex="1" parent="2b4e8129b02d487f-3">
          <mxGeometry x="850" y="370" width="510" height="60" as="geometry" />
        </mxCell>
        <mxCell id="wfJeZkwtzijaD64bfVtk-25" style="edgeStyle=orthogonalEdgeStyle;rounded=0;orthogonalLoop=1;jettySize=auto;html=1;exitX=0.5;exitY=0;exitDx=0;exitDy=0;entryX=0.5;entryY=1;entryDx=0;entryDy=0;entryPerimeter=0;" edge="1" parent="2b4e8129b02d487f-3" source="wfJeZkwtzijaD64bfVtk-24" target="snoJyz_RMj4-58Zv0lQL-28">
          <mxGeometry relative="1" as="geometry" />
        </mxCell>
        <mxCell id="2b4e8129b02d487f-4" value="Vision" style="swimlane;html=1;startSize=20;horizontal=0;" parent="1" vertex="1">
          <mxGeometry x="-190" y="760" width="2190" height="540" as="geometry" />
        </mxCell>
        <mxCell id="wfJeZkwtzijaD64bfVtk-5" style="edgeStyle=orthogonalEdgeStyle;rounded=0;orthogonalLoop=1;jettySize=auto;html=1;exitX=0.5;exitY=1;exitDx=0;exitDy=0;entryX=0.5;entryY=0;entryDx=0;entryDy=0;" edge="1" parent="2b4e8129b02d487f-4" source="wfJeZkwtzijaD64bfVtk-3" target="wfJeZkwtzijaD64bfVtk-16">
          <mxGeometry relative="1" as="geometry">
            <mxPoint x="335" y="165" as="targetPoint" />
          </mxGeometry>
        </mxCell>
        <mxCell id="wfJeZkwtzijaD64bfVtk-3" value="&lt;div&gt;Single food item with directory path to specific&amp;nbsp;&lt;/div&gt;&lt;div&gt;food item images and weight of said food item&lt;/div&gt;" style="shape=parallelogram;html=1;strokeWidth=2;perimeter=parallelogramPerimeter;whiteSpace=wrap;rounded=1;arcSize=12;size=0.23;" vertex="1" parent="2b4e8129b02d487f-4">
          <mxGeometry x="255" y="40" width="390" height="50" as="geometry" />
        </mxCell>
        <mxCell id="wfJeZkwtzijaD64bfVtk-37" value="No" style="edgeStyle=orthogonalEdgeStyle;rounded=0;orthogonalLoop=1;jettySize=auto;html=1;exitX=1;exitY=0.5;exitDx=0;exitDy=0;entryX=0;entryY=0.5;entryDx=0;entryDy=0;" edge="1" parent="2b4e8129b02d487f-4" source="wfJeZkwtzijaD64bfVtk-16" target="wfJeZkwtzijaD64bfVtk-36">
          <mxGeometry relative="1" as="geometry" />
        </mxCell>
        <mxCell id="wfJeZkwtzijaD64bfVtk-16" value="Iterated through image directory?" style="rhombus;whiteSpace=wrap;html=1;" vertex="1" parent="2b4e8129b02d487f-4">
          <mxGeometry x="190" y="175" width="260" height="80" as="geometry" />
        </mxCell>
        <mxCell id="wfJeZkwtzijaD64bfVtk-21" style="edgeStyle=orthogonalEdgeStyle;rounded=0;orthogonalLoop=1;jettySize=auto;html=1;exitX=0;exitY=0;exitDx=0;exitDy=0;entryX=0;entryY=1;entryDx=0;entryDy=0;" edge="1" parent="2b4e8129b02d487f-4" source="wfJeZkwtzijaD64bfVtk-16" target="wfJeZkwtzijaD64bfVtk-16">
          <mxGeometry relative="1" as="geometry">
            <Array as="points">
              <mxPoint x="255" y="155" />
              <mxPoint x="140" y="155" />
              <mxPoint x="140" y="275" />
              <mxPoint x="255" y="275" />
            </Array>
          </mxGeometry>
        </mxCell>
        <mxCell id="wfJeZkwtzijaD64bfVtk-22" value="Yes" style="edgeLabel;html=1;align=center;verticalAlign=middle;resizable=0;points=[];" vertex="1" connectable="0" parent="wfJeZkwtzijaD64bfVtk-21">
          <mxGeometry x="-0.1323" y="2" relative="1" as="geometry">
            <mxPoint as="offset" />
          </mxGeometry>
        </mxCell>
        <mxCell id="wfJeZkwtzijaD64bfVtk-59" style="edgeStyle=orthogonalEdgeStyle;rounded=0;orthogonalLoop=1;jettySize=auto;html=1;exitX=1;exitY=0.5;exitDx=0;exitDy=0;entryX=0;entryY=0.5;entryDx=0;entryDy=0;" edge="1" parent="2b4e8129b02d487f-4" source="wfJeZkwtzijaD64bfVtk-23" target="wfJeZkwtzijaD64bfVtk-58">
          <mxGeometry relative="1" as="geometry" />
        </mxCell>
        <mxCell id="wfJeZkwtzijaD64bfVtk-23" value="Send stop signal" style="rounded=1;whiteSpace=wrap;html=1;" vertex="1" parent="2b4e8129b02d487f-4">
          <mxGeometry x="1880" y="185" width="120" height="60" as="geometry" />
        </mxCell>
        <mxCell id="wfJeZkwtzijaD64bfVtk-34" style="edgeStyle=orthogonalEdgeStyle;rounded=0;orthogonalLoop=1;jettySize=auto;html=1;exitX=1;exitY=0.5;exitDx=0;exitDy=0;entryX=0;entryY=0.5;entryDx=0;entryDy=0;" edge="1" parent="2b4e8129b02d487f-4" source="wfJeZkwtzijaD64bfVtk-32" target="wfJeZkwtzijaD64bfVtk-33">
          <mxGeometry relative="1" as="geometry" />
        </mxCell>
        <mxCell id="wfJeZkwtzijaD64bfVtk-32" value="Run text detection for item name" style="rounded=1;whiteSpace=wrap;html=1;" vertex="1" parent="2b4e8129b02d487f-4">
          <mxGeometry x="890" y="185" width="120" height="60" as="geometry" />
        </mxCell>
        <mxCell id="wfJeZkwtzijaD64bfVtk-39" value="No" style="edgeStyle=orthogonalEdgeStyle;rounded=0;orthogonalLoop=1;jettySize=auto;html=1;exitX=0.5;exitY=1;exitDx=0;exitDy=0;entryX=1;entryY=0.5;entryDx=0;entryDy=0;" edge="1" parent="2b4e8129b02d487f-4" source="wfJeZkwtzijaD64bfVtk-33" target="wfJeZkwtzijaD64bfVtk-52">
          <mxGeometry relative="1" as="geometry">
            <mxPoint x="720" y="270" as="targetPoint" />
            <Array as="points">
              <mxPoint x="1170" y="310" />
              <mxPoint x="830" y="310" />
              <mxPoint x="830" y="340" />
            </Array>
          </mxGeometry>
        </mxCell>
        <mxCell id="wfJeZkwtzijaD64bfVtk-33" value="Text read makes sense" style="rhombus;whiteSpace=wrap;html=1;" vertex="1" parent="2b4e8129b02d487f-4">
          <mxGeometry x="1060" y="175" width="220" height="80" as="geometry" />
        </mxCell>
        <mxCell id="wfJeZkwtzijaD64bfVtk-46" style="edgeStyle=orthogonalEdgeStyle;rounded=0;orthogonalLoop=1;jettySize=auto;html=1;exitX=1;exitY=0.5;exitDx=0;exitDy=0;entryX=0;entryY=0.5;entryDx=0;entryDy=0;" edge="1" parent="2b4e8129b02d487f-4" source="wfJeZkwtzijaD64bfVtk-36" target="wfJeZkwtzijaD64bfVtk-43">
          <mxGeometry relative="1" as="geometry" />
        </mxCell>
        <mxCell id="wfJeZkwtzijaD64bfVtk-36" value="Look at next picture in image directory" style="rounded=1;whiteSpace=wrap;html=1;" vertex="1" parent="2b4e8129b02d487f-4">
          <mxGeometry x="520" y="185" width="120" height="60" as="geometry" />
        </mxCell>
        <mxCell id="wfJeZkwtzijaD64bfVtk-41" value="Yes" style="edgeStyle=orthogonalEdgeStyle;rounded=0;orthogonalLoop=1;jettySize=auto;html=1;exitX=1;exitY=0.5;exitDx=0;exitDy=0;entryX=0;entryY=0.5;entryDx=0;entryDy=0;" edge="1" parent="2b4e8129b02d487f-4" source="wfJeZkwtzijaD64bfVtk-33" target="wfJeZkwtzijaD64bfVtk-42">
          <mxGeometry relative="1" as="geometry">
            <mxPoint x="1430" y="215" as="targetPoint" />
          </mxGeometry>
        </mxCell>
        <mxCell id="wfJeZkwtzijaD64bfVtk-49" style="edgeStyle=orthogonalEdgeStyle;rounded=0;orthogonalLoop=1;jettySize=auto;html=1;exitX=1;exitY=0.5;exitDx=0;exitDy=0;entryX=0;entryY=0.5;entryDx=0;entryDy=0;" edge="1" parent="2b4e8129b02d487f-4" source="wfJeZkwtzijaD64bfVtk-42" target="wfJeZkwtzijaD64bfVtk-48">
          <mxGeometry relative="1" as="geometry" />
        </mxCell>
        <mxCell id="wfJeZkwtzijaD64bfVtk-42" value="Run text detection for expiration date" style="rounded=1;whiteSpace=wrap;html=1;" vertex="1" parent="2b4e8129b02d487f-4">
          <mxGeometry x="1340" y="185" width="120" height="60" as="geometry" />
        </mxCell>
        <mxCell id="wfJeZkwtzijaD64bfVtk-44" value="No" style="edgeStyle=orthogonalEdgeStyle;rounded=0;orthogonalLoop=1;jettySize=auto;html=1;exitX=1;exitY=0.5;exitDx=0;exitDy=0;entryX=0;entryY=0.5;entryDx=0;entryDy=0;" edge="1" parent="2b4e8129b02d487f-4" source="wfJeZkwtzijaD64bfVtk-43" target="wfJeZkwtzijaD64bfVtk-32">
          <mxGeometry relative="1" as="geometry" />
        </mxCell>
        <mxCell id="wfJeZkwtzijaD64bfVtk-45" value="Yes" style="edgeStyle=orthogonalEdgeStyle;rounded=0;orthogonalLoop=1;jettySize=auto;html=1;exitX=0.5;exitY=0;exitDx=0;exitDy=0;entryX=0.5;entryY=0;entryDx=0;entryDy=0;" edge="1" parent="2b4e8129b02d487f-4" source="wfJeZkwtzijaD64bfVtk-43" target="wfJeZkwtzijaD64bfVtk-42">
          <mxGeometry relative="1" as="geometry" />
        </mxCell>
        <mxCell id="wfJeZkwtzijaD64bfVtk-43" value="Item name identified?" style="rhombus;whiteSpace=wrap;html=1;" vertex="1" parent="2b4e8129b02d487f-4">
          <mxGeometry x="720" y="175" width="100" height="80" as="geometry" />
        </mxCell>
        <mxCell id="wfJeZkwtzijaD64bfVtk-50" value="No" style="edgeStyle=orthogonalEdgeStyle;rounded=0;orthogonalLoop=1;jettySize=auto;html=1;exitX=0.5;exitY=1;exitDx=0;exitDy=0;entryX=0.5;entryY=1;entryDx=0;entryDy=0;" edge="1" parent="2b4e8129b02d487f-4" source="wfJeZkwtzijaD64bfVtk-48" target="wfJeZkwtzijaD64bfVtk-52">
          <mxGeometry relative="1" as="geometry">
            <Array as="points">
              <mxPoint x="1640" y="390" />
              <mxPoint x="710" y="390" />
            </Array>
          </mxGeometry>
        </mxCell>
        <mxCell id="wfJeZkwtzijaD64bfVtk-51" value="Yes" style="edgeStyle=orthogonalEdgeStyle;rounded=0;orthogonalLoop=1;jettySize=auto;html=1;exitX=1;exitY=0.5;exitDx=0;exitDy=0;entryX=0;entryY=0.5;entryDx=0;entryDy=0;" edge="1" parent="2b4e8129b02d487f-4" source="wfJeZkwtzijaD64bfVtk-48" target="wfJeZkwtzijaD64bfVtk-23">
          <mxGeometry relative="1" as="geometry" />
        </mxCell>
        <mxCell id="wfJeZkwtzijaD64bfVtk-48" value="Text read makes sense" style="rhombus;whiteSpace=wrap;html=1;" vertex="1" parent="2b4e8129b02d487f-4">
          <mxGeometry x="1530" y="175" width="220" height="80" as="geometry" />
        </mxCell>
        <mxCell id="wfJeZkwtzijaD64bfVtk-53" style="edgeStyle=orthogonalEdgeStyle;rounded=0;orthogonalLoop=1;jettySize=auto;html=1;exitX=0;exitY=0.5;exitDx=0;exitDy=0;entryX=0.5;entryY=1;entryDx=0;entryDy=0;" edge="1" parent="2b4e8129b02d487f-4" source="wfJeZkwtzijaD64bfVtk-52" target="wfJeZkwtzijaD64bfVtk-36">
          <mxGeometry relative="1" as="geometry" />
        </mxCell>
        <mxCell id="wfJeZkwtzijaD64bfVtk-52" value="Delete photo" style="rounded=1;whiteSpace=wrap;html=1;" vertex="1" parent="2b4e8129b02d487f-4">
          <mxGeometry x="650" y="310" width="120" height="60" as="geometry" />
        </mxCell>
        <mxCell id="wfJeZkwtzijaD64bfVtk-58" value="Send FoodItem to display" style="rounded=1;whiteSpace=wrap;html=1;" vertex="1" parent="2b4e8129b02d487f-4">
          <mxGeometry x="2040" y="185" width="120" height="60" as="geometry" />
        </mxCell>
        <mxCell id="wfJeZkwtzijaD64bfVtk-4" style="edgeStyle=orthogonalEdgeStyle;rounded=0;orthogonalLoop=1;jettySize=auto;html=1;exitX=0.5;exitY=1;exitDx=0;exitDy=0;entryX=0.5;entryY=0;entryDx=0;entryDy=0;" edge="1" parent="1" source="snoJyz_RMj4-58Zv0lQL-22" target="wfJeZkwtzijaD64bfVtk-3">
          <mxGeometry relative="1" as="geometry" />
        </mxCell>
        <mxCell id="wfJeZkwtzijaD64bfVtk-26" style="edgeStyle=orthogonalEdgeStyle;rounded=0;orthogonalLoop=1;jettySize=auto;html=1;exitX=0.5;exitY=0;exitDx=0;exitDy=0;entryX=0.5;entryY=1;entryDx=0;entryDy=0;" edge="1" parent="1" source="wfJeZkwtzijaD64bfVtk-23" target="wfJeZkwtzijaD64bfVtk-24">
          <mxGeometry relative="1" as="geometry" />
        </mxCell>
        <mxCell id="wfJeZkwtzijaD64bfVtk-60" style="edgeStyle=orthogonalEdgeStyle;rounded=0;orthogonalLoop=1;jettySize=auto;html=1;exitX=0.5;exitY=0;exitDx=0;exitDy=0;entryX=0.5;entryY=1;entryDx=0;entryDy=0;" edge="1" parent="1" source="wfJeZkwtzijaD64bfVtk-58" target="wfJeZkwtzijaD64bfVtk-56">
          <mxGeometry relative="1" as="geometry" />
        </mxCell>
      </root>
    </mxGraphModel>
  </diagram>
</mxfile>
